# xmcd
#
# Track frame offsets: 
#        150
#        27530
#        37202
#        47775
#        64270
#        76765
#        96015
#        106107
#        117252
#        133955
#        145325
#        156467
#        168525
#        174362
#        189837
#
# Disc length: 2716 seconds
#
# Revision: 1
# Processed by: cddbd v1.5.2PL0 Copyright (c) Steve Scherf et al.
# Submitted via: ExactAudioCopy v1.3
#
DISCID=d10a9a0f
DTITLE=Burrito Brothers - Back To The Sweethearts Of The Rodeo
DYEAR=2000
DGENRE=Country
TTITLE0=Like a Shadow 
TTITLE1=I Don't Believe You Met My Baby
TTITLE2=My Heart Skips a Beat 
TTITLE3=Take a Message to Mary 
TTITLE4=Last Call 
TTITLE5=Burn the Midnight Oil 
TTITLE6=Should We Tell Him 
TTITLE7=You're Running Wild 
TTITLE8=This Could Be the Night 
TTITLE9=My Shoes Keep Walking Back to You
TTITLE10=You Should Know Me By Now 
TTITLE11=I've Got a New Heartache 
TTITLE12=Roadmaster 
TTITLE13=One Man Woman 
TTITLE14=Do You Know Mary Lou 
EXTD=
EXTT0=
EXTT1=
EXTT2=
EXTT3=
EXTT4=
EXTT5=
EXTT6=
EXTT7=
EXTT8=
EXTT9=
EXTT10=
EXTT11=
EXTT12=
EXTT13=
EXTT14=
PLAYORDER=
